<svg width="28" height="26" viewBox="0 0 28 26" fill="none" xmlns="http://www.w3.org/2000/svg">
<path d="M12.02 4C6.21 4 2 8.74 2 14C2 15.68 2.49 17.41 3.35 18.99C3.51 19.25 3.53 19.58 3.42 19.89L2.75 22.13C2.6 22.67 3.06 23.07 3.57 22.91L5.59 22.31C6.14 22.13 6.57 22.36 7.081 22.67C8.541 23.53 10.36 23.97 12 23.97C16.96 23.97 22 20.14 22 13.97C22 8.65 17.7 4 12.02 4Z" fill="url(#paint0_linear_191_810)"/>
<path fill-rule="evenodd" clip-rule="evenodd" d="M11.9807 15.2901C11.2707 15.2801 10.7007 14.7101 10.7007 14.0001C10.7007 13.3001 11.2807 12.7201 11.9807 12.7301C12.6907 12.7301 13.2607 13.3001 13.2607 14.0101C13.2607 14.7101 12.6907 15.2901 11.9807 15.2901ZM7.37033 15.2901C6.67033 15.2901 6.09033 14.7101 6.09033 14.0101C6.09033 13.3001 6.66033 12.7301 7.37033 12.7301C8.08033 12.7301 8.65033 13.3001 8.65033 14.0101C8.65033 14.7101 8.08033 15.2801 7.37033 15.2901ZM15.3105 14.0101C15.3105 14.7101 15.8805 15.2901 16.5905 15.2901C17.3005 15.2901 17.8705 14.7101 17.8705 14.0101C17.8705 13.3001 17.3005 12.7301 16.5905 12.7301C15.8805 12.7301 15.3105 13.3001 15.3105 14.0101Z" fill="white"/>
<circle cx="21.5" cy="6.5" r="6" fill="#FF4B4B" stroke="white"/>
<defs>
<linearGradient id="paint0_linear_191_810" x1="2" y1="2.77377" x2="25.0865" y2="6.35606" gradientUnits="userSpaceOnUse">
<stop stop-color="#53E88B"/>
<stop offset="1" stop-color="#15BE77"/>
</linearGradient>
</defs>
</svg>
